/* XPM */
static char * hot_babe_xpm[] = {
"32 32 290 2",
"  	c None",
". 	c #9B9B9B",
"+ 	c #D8D8D8",
"@ 	c #DEDEDE",
"# 	c #AEAEAE",
"$ 	c #747474",
"% 	c #E5E5E5",
"& 	c #EDEDED",
"* 	c #E9E9E9",
"= 	c #E8E8E8",
"- 	c #ECECEC",
"; 	c #F2F2F2",
"> 	c #A0A0A0",
", 	c #8B8B8B",
"' 	c #D0D0D0",
") 	c #D1D1D1",
"! 	c #CCCCCC",
"~ 	c #191919",
"{ 	c #4E4E4E",
"] 	c #BFBFBF",
"^ 	c #838383",
"/ 	c #858585",
"( 	c #A8A8A8",
"_ 	c #BBBBBB",
": 	c #BABABA",
"< 	c #818181",
"[ 	c #000000",
"} 	c #040404",
"| 	c #8F8F8F",
"1 	c #5E5E5E",
"2 	c #A9A9A9",
"3 	c #A4A4A4",
"4 	c #6C6C6C",
"5 	c #8A8A8A",
"6 	c #A5A5A5",
"7 	c #A3A3A3",
"8 	c #969696",
"9 	c #A1A1A1",
"0 	c #AFAFAF",
"a 	c #101010",
"b 	c #090909",
"c 	c #454545",
"d 	c #979797",
"e 	c #EFEFEF",
"f 	c #EEEEEE",
"g 	c #B9B9B9",
"h 	c #505050",
"i 	c #6B6B6B",
"j 	c #5A5A5A",
"k 	c #7A7A7A",
"l 	c #757575",
"m 	c #646464",
"n 	c #7D7D7D",
"o 	c #353535",
"p 	c #010101",
"q 	c #4A4A4A",
"r 	c #DBDBDB",
"s 	c #D9D9D9",
"t 	c #F4F4F4",
"u 	c #222222",
"v 	c #7C7C7C",
"w 	c #C1C1C1",
"x 	c #868686",
"y 	c #262626",
"z 	c #202020",
"A 	c #D4D4D4",
"B 	c #D2D2D2",
"C 	c #D3D3D3",
"D 	c #C7C7C7",
"E 	c #A2A2A2",
"F 	c #606060",
"G 	c #CBCBCB",
"H 	c #D5D5D5",
"I 	c #E0E0E0",
"J 	c #9A9A9A",
"K 	c #B8B8B8",
"L 	c #DADADA",
"M 	c #404040",
"N 	c #1C1C1C",
"O 	c #1B1B1B",
"P 	c #4C4C4C",
"Q 	c #060606",
"R 	c #919191",
"S 	c #D6D6D6",
"T 	c #777779",
"U 	c #1E1F23",
"V 	c #151618",
"W 	c #838486",
"X 	c #D3D3D4",
"Y 	c #BDBDBD",
"Z 	c #111111",
"` 	c #DDDDDD",
" .	c #D2D2D4",
"..	c #D7C698",
"+.	c #C4A853",
"@.	c #D4C188",
"#.	c #E9DBB2",
"$.	c #D8D5D0",
"%.	c #2A2A2A",
"&.	c #3A3A3A",
"*.	c #9C9C9D",
"=.	c #D6B45A",
"-.	c #DEAD00",
";.	c #E1B807",
">.	c #E4C225",
",.	c #F1DD8B",
"'.	c #E6CC81",
").	c #A6A8AD",
"!.	c #5F5F5F",
"~.	c #171717",
"{.	c #AFA480",
"].	c #E3BD21",
"^.	c #DFB900",
"/.	c #DFBB00",
"(.	c #E0B808",
"_.	c #CDBD84",
":.	c #EFEFF2",
"<.	c #FFFFFF",
"[.	c #727272",
"}.	c #020202",
"|.	c #0D0D0D",
"1.	c #FDFDFD",
"2.	c #DEDEDF",
"3.	c #B9AF86",
"4.	c #E3BF21",
"5.	c #DFB400",
"6.	c #CEB036",
"7.	c #0C0C0C",
"8.	c #303030",
"9.	c #8C8C8C",
"0.	c #F5F5F5",
"a.	c #F3F3F3",
"b.	c #D0D1D3",
"c.	c #B5AD8A",
"d.	c #C2AA56",
"e.	c #C5C7CE",
"f.	c #F0F0F0",
"g.	c #EAEAEA",
"h.	c #0B0B0B",
"i.	c #2E2E2E",
"j.	c #272727",
"k.	c #333333",
"l.	c #4F4F4F",
"m.	c #1A1A1A",
"n.	c #E3E3E3",
"o.	c #E2E2E2",
"p.	c #CECECE",
"q.	c #C5C6C7",
"r.	c #E6E6E6",
"s.	c #848484",
"t.	c #080808",
"u.	c #424242",
"v.	c #484848",
"w.	c #535353",
"x.	c #030303",
"y.	c #050505",
"z.	c #292929",
"A.	c #6F6F6F",
"B.	c #121212",
"C.	c #242424",
"D.	c #C5C5C5",
"E.	c #C6C6C6",
"F.	c #C8C8C8",
"G.	c #3B3B3B",
"H.	c #1E1E1E",
"I.	c #383838",
"J.	c #1D1D1D",
"K.	c #B1B1B1",
"L.	c #BEBEBE",
"M.	c #595959",
"N.	c #6E6E6E",
"O.	c #C2C2C2",
"P.	c #6A6A6A",
"Q.	c #525252",
"R.	c #CDCDCD",
"S.	c #707070",
"T.	c #161616",
"U.	c #B8B8B9",
"V.	c #C0C1C6",
"W.	c #BCBEC3",
"X.	c #BDBEC1",
"Y.	c #BDBEBF",
"Z.	c #BCBDC2",
"`.	c #BBBDC2",
" +	c #D6D7DB",
".+	c #958867",
"++	c #D3B872",
"@+	c #CDAE5A",
"#+	c #C4A960",
"$+	c #B9AE92",
"%+	c #B6B5B4",
"&+	c #BCBDBD",
"*+	c #B8B9BC",
"=+	c #B6B1A3",
"-+	c #BBAA7D",
";+	c #C9A957",
">+	c #CEB061",
",+	c #D6C188",
"'+	c #645839",
")+	c #F1D992",
"!+	c #F4E2A2",
"~+	c #F4E2A4",
"{+	c #F4E1A1",
"]+	c #EED376",
"^+	c #DDAA00",
"/+	c #DAA60F",
"(+	c #B0AB9D",
"_+	c #B3B3B4",
":+	c #C5A451",
"<+	c #DDA601",
"[+	c #E4B727",
"}+	c #F3E09D",
"|+	c #F4E2A3",
"1+	c #F4E1A3",
"2+	c #E7BB48",
"3+	c #E6C13F",
"4+	c #EED571",
"5+	c #EDD670",
"6+	c #EDD770",
"7+	c #EED876",
"8+	c #E7C63C",
"9+	c #DEB000",
"0+	c #D8A90F",
"a+	c #ADADAC",
"b+	c #B5B6B8",
"c+	c #B8A66E",
"d+	c #DFAD00",
"e+	c #DFB409",
"f+	c #EDD570",
"g+	c #EDD472",
"h+	c #DFAE11",
"i+	c #DEA700",
"j+	c #E3BA1F",
"k+	c #E6C539",
"l+	c #E6C839",
"m+	c #E6CA39",
"n+	c #E6CB39",
"o+	c #E7C93A",
"p+	c #E2BE1C",
"q+	c #DEB200",
"r+	c #E0AD00",
"s+	c #B6A575",
"t+	c #A7ACB8",
"u+	c #DBA608",
"v+	c #DFB604",
"w+	c #E6C738",
"x+	c #E6C939",
"y+	c #E6C639",
"z+	c #E6C337",
"A+	c #DFAE07",
"B+	c #DDA103",
"C+	c #E0A900",
"D+	c #E0B200",
"E+	c #E1B501",
"F+	c #E2B701",
"G+	c #E1B600",
"H+	c #E0B300",
"I+	c #E0AE00",
"J+	c #E3A500",
"K+	c #988960",
"L+	c #828692",
"M+	c #D59D07",
"N+	c #E0AA00",
"O+	c #E0B100",
"P+	c #E0B500",
"Q+	c #E1B701",
"R+	c #E2B801",
"S+	c #E2B601",
"T+	c #E1B401",
"U+	c #E0B000",
"V+	c #E0A500",
"W+	c #CFA127",
"X+	c #AEA07C",
"Y+	c #B4A06D",
"Z+	c #B2A271",
"`+	c #B2A372",
" @	c #B1A474",
".@	c #B1A475",
"+@	c #B1A476",
"@@	c #B1A376",
"#@	c #B1A076",
"$@	c #B0A078",
"%@	c #A0A1A2",
"&@	c #A1A1A2",
"*@	c #A7A18E",
"=@	c #B1A276",
"-@	c #B1A473",
";@	c #B2A471",
">@	c #B4A16F",
",@	c #B7A165",
"                                                                ",
"                                                                ",
"                            . + @ #                             ",
"                        $ % & * = - ; >                         ",
"                      , ' ' ' ' ' ' ' ) ! ~                     ",
"                    { ] ^ / ( _ : : : : : < [                   ",
"                  } | 1 2 3 4 5 6 7 8 8 9 0 a                   ",
"                [ b c d e f g h i j k l m n o [                 ",
"                [ p q r s & t 1 u v ( w x y z [                 ",
"                [ [ 7 A B C D E F G B H I J [ [                 ",
"                [ [ K B B L M N O P H B C + Q [                 ",
"                [ [ R s B S T U V W X B B Y [ [ [               ",
"                [ [ Z ` B  ...+.@.#.$.+ A %.[ [ [               ",
"              [ [ [ [ &.*.=.-.;.>.,.'.).!.[ [ [ [               ",
"            p [ [ [ ~.@ ] {.].^./.(._.:.<.[.[ [ [ p             ",
"          } Z }.[ |.- <.1.2.3.4.5.6.@ <.<.<.[.[ [ |.7.          ",
"        N 8.~.p [ 9.0.a.a.; b.c.d.e.f.a.a.a.g.7.[ h.i.j.        ",
"      k.l.m.[ [ ~ a.n.n.n.n.o.p.q.o.n.n.n.n.r.s.[ [ t.u.v.      ",
"    1 w.x.m.p [ k S H H H H H H A H H H H H H r y.[ ~ Q z.A.    ",
"    k.B.C.  [ [ > D.E.E.E.E.E.E.E.E.E.E.E.E.E.F.G.[     m.H.I.  ",
"    J.      [ p K.L.L.L.L.L.L.L.L.L.L.L.L.L.L.] M.[       O [   ",
"            [ p _ L.L.L.L.L.L.L.L.L.L.L.L.L.L.Y N.[             ",
"            } p Y Y L.L.L.L.L.L.L.L.L.L.L.L.L.O.P.}             ",
"              Q._ Y L.L.L.L.L.L.L.L.L.L.L.L.L.R.S.O             ",
"              T.U.V.W.X.L.L.L.L.L.L.L.L.Y.Z.`. +!.              ",
"                .+++@+#+$+%+&+L.L.L.*+=+-+;+>+,+'+              ",
"              )+!+~+{+]+^+/+(+: L._+:+<+[+}+|+|+1+2+            ",
"            3+4+5+6+6+7+8+9+0+a+b+c+d+e+7+6+6+5+f+g+h+          ",
"          i+j+k+l+m+n+o+p+q+r+s+t+u+9+v+w+m+n+x+y+z+A+          ",
"          B+C+D+E+F+F+G+H+I+J+K+L+M+N+O+P+Q+R+S+T+U+V+W+        ",
"          X+Y+Z+`+ @.@+@@@#@$@%@&@*@#@=@.@ @ @-@;@>@,@          ",
"                                                                "};
