/* XPM */
static char * hot_babe_xpm[] = {
"32 32 630 2",
"  	c None",
". 	c #CABBB3",
"+ 	c #DCCDC5",
"@ 	c #CEBFB7",
"# 	c #BBAEA6",
"$ 	c #B1A39B",
"% 	c #C8BAB2",
"& 	c #F7E7DD",
"* 	c #F8E7DC",
"= 	c #F6DDD1",
"- 	c #EAD1C6",
"; 	c #DFD0C6",
"> 	c #D3C3B9",
", 	c #CCBEB4",
"' 	c #C8B8B0",
") 	c #BFB1A9",
"! 	c #A59992",
"~ 	c #827A72",
"{ 	c #E2D3CA",
"] 	c #F8E7DD",
"^ 	c #F8E4DA",
"/ 	c #F4D1C5",
"( 	c #D3AB9F",
"_ 	c #DFCBC2",
": 	c #C9BBB3",
"< 	c #D3C3BA",
"[ 	c #CABCB4",
"} 	c #A89992",
"| 	c #DECBC3",
"1 	c #E4D6CD",
"2 	c #F7E6DC",
"3 	c #D8C9C1",
"4 	c #B3A69F",
"5 	c #817873",
"6 	c #837A6E",
"7 	c #CBBCB4",
"8 	c #E4D5CC",
"9 	c #ECD1C6",
"0 	c #EBC7BA",
"a 	c #B28D81",
"b 	c #D3B1A6",
"c 	c #E6C9BE",
"d 	c #EBCABE",
"e 	c #E2C4B9",
"f 	c #F8E6DC",
"g 	c #F3E2D9",
"h 	c #94867D",
"i 	c #AF9C89",
"j 	c #CEB5A4",
"k 	c #E9D9D0",
"l 	c #B3A59D",
"m 	c #948A7F",
"n 	c #C9B3A8",
"o 	c #D0B8AE",
"p 	c #DBC8BF",
"q 	c #AE8A76",
"r 	c #AD9B88",
"s 	c #C3BCB2",
"t 	c #C8C6C3",
"u 	c #D6CEB9",
"v 	c #D5B8A4",
"w 	c #F7DED3",
"x 	c #F5E3DA",
"y 	c #9F8A7D",
"z 	c #D9A687",
"A 	c #E2CEC5",
"B 	c #F7E4DA",
"C 	c #F4D9CE",
"D 	c #A48A82",
"E 	c #BAAA9A",
"F 	c #B5998D",
"G 	c #CFB1A6",
"H 	c #B2A199",
"I 	c #CDA998",
"J 	c #D4B092",
"K 	c #EDD0AE",
"L 	c #ECC8A8",
"M 	c #ECC8A7",
"N 	c #E7B693",
"O 	c #E1AE8C",
"P 	c #C7A89C",
"Q 	c #F7E0D5",
"R 	c #F0DED4",
"S 	c #B19482",
"T 	c #AA8E80",
"U 	c #EED1C5",
"V 	c #F8E5DB",
"W 	c #F6DCD0",
"X 	c #D3AFA4",
"Y 	c #C3A695",
"Z 	c #B89B88",
"` 	c #CCA899",
" .	c #AC978E",
"..	c #CD9A7E",
"+.	c #E4A581",
"@.	c #E6AA87",
"#.	c #E7AF8C",
"$.	c #E7B18D",
"%.	c #E7B695",
"&.	c #AE8D7B",
"*.	c #BE9E87",
"=.	c #DDBCAF",
"-.	c #F8E2D8",
";.	c #EDD8CE",
">.	c #9A8377",
",.	c #A78A81",
"'.	c #EBC7BB",
").	c #F7DFD4",
"!.	c #F5D3C7",
"~.	c #BC9A90",
"{.	c #BDA188",
"].	c #C7A185",
"^.	c #C3A08C",
"/.	c #C09985",
"(.	c #998073",
"_.	c #E8BC99",
":.	c #E4B896",
"<.	c #EABE9B",
"[.	c #E9BF9C",
"}.	c #DBBC9D",
"|.	c #B09685",
"1.	c #B99C87",
"2.	c #AC9182",
"3.	c #C9A58D",
"4.	c #EACCC0",
"5.	c #F8E5DA",
"6.	c #E5D1C7",
"7.	c #A38D85",
"8.	c #F3D2C6",
"9.	c #F7DDD2",
"0.	c #F2C6B9",
"a.	c #9E8E7D",
"b.	c #D6B89A",
"c.	c #EAC7A5",
"d.	c #C4AB92",
"e.	c #C6A98E",
"f.	c #E0C9AA",
"g.	c #E6C9A9",
"h.	c #CCB196",
"i.	c #E2C2A3",
"j.	c #D1BEA2",
"k.	c #BBA294",
"l.	c #C8A798",
"m.	c #D2B1A5",
"n.	c #B09389",
"o.	c #B7937E",
"p.	c #BA968A",
"q.	c #F6D5C9",
"r.	c #E6CFC5",
"s.	c #CAB1A8",
"t.	c #F6DCD1",
"u.	c #F5D0C4",
"v.	c #BA948A",
"w.	c #59534E",
"x.	c #D2BBA0",
"y.	c #D6BB9E",
"z.	c #EDD8B7",
"A.	c #D8C3A6",
"B.	c #EFDFBF",
"C.	c #E3CEAE",
"D.	c #BDA893",
"E.	c #C8BAA1",
"F.	c #CDBCA5",
"G.	c #967C7A",
"H.	c #B2948D",
"I.	c #C8B1A5",
"J.	c #F5DBD0",
"K.	c #A28C81",
"L.	c #A68A7D",
"M.	c #977C72",
"N.	c #C6A297",
"O.	c #F8E6DB",
"P.	c #DDC4BA",
"Q.	c #D2B2A7",
"R.	c #EDBDAF",
"S.	c #C4B299",
"T.	c #D5C3A8",
"U.	c #E7CEAF",
"V.	c #EFDCBD",
"W.	c #F5EACF",
"X.	c #ECD8B9",
"Y.	c #C0AA99",
"Z.	c #B49C8F",
"`.	c #C3B09C",
" +	c #695759",
".+	c #61595C",
"++	c #586079",
"@+	c #BC9D94",
"#+	c #BF9F96",
"$+	c #B89C90",
"%+	c #937A70",
"&+	c #8F7176",
"*+	c #78655D",
"=+	c #F0C9BC",
"-+	c #D1B5AB",
";+	c #91746C",
">+	c #AC9F8B",
",+	c #E3D0B1",
"'+	c #D7BEA1",
")+	c #F4E6CB",
"!+	c #F7EDD5",
"~+	c #F1E0C1",
"{+	c #DAC3A6",
"]+	c #AF9380",
"^+	c #BDA495",
"/+	c #99847A",
"(+	c #C2A8A0",
"_+	c #8F97A2",
":+	c #6795B1",
"<+	c #DCCCC8",
"[+	c #D6AEA2",
"}+	c #A3867D",
"|+	c #AF9B99",
"1+	c #717072",
"2+	c #68584E",
"3+	c #BF9B90",
"4+	c #F6DACE",
"5+	c #F8E2D7",
"6+	c #C6ABA1",
"7+	c #CEB79C",
"8+	c #EAD6B5",
"9+	c #E4CDB0",
"0+	c #F9F1DA",
"a+	c #F4E7CB",
"b+	c #EDDAB9",
"c+	c #C5B198",
"d+	c #C79D81",
"e+	c #AD958A",
"f+	c #B6968C",
"g+	c #E3D4CB",
"h+	c #D8C6BD",
"i+	c #A48D85",
"j+	c #E6CABF",
"k+	c #BCB5B6",
"l+	c #A89389",
"m+	c #92766F",
"n+	c #C39A8F",
"o+	c #E3C4B9",
"p+	c #B7968C",
"q+	c #A89A86",
"r+	c #DCC9AC",
"s+	c #D9C5A8",
"t+	c #DDC7A9",
"u+	c #F0DFC4",
"v+	c #F9F0D9",
"w+	c #EEDCBC",
"x+	c #DCCEB1",
"y+	c #DEC3A4",
"z+	c #AF8E75",
"A+	c #9C8880",
"B+	c #C5A99A",
"C+	c #EDC6B9",
"D+	c #C3B0A7",
"E+	c #E7D1C7",
"F+	c #F1DCD2",
"G+	c #F7E0D6",
"H+	c #D0B1A7",
"I+	c #B49B93",
"J+	c #D3BAB1",
"K+	c #F8E3D9",
"L+	c #F5D4C8",
"M+	c #F3C2B3",
"N+	c #AC9988",
"O+	c #CEB9A1",
"P+	c #EBDCBC",
"Q+	c #E0D0B2",
"R+	c #E1CCAE",
"S+	c #F4E5CB",
"T+	c #F4E7CC",
"U+	c #DDCAAC",
"V+	c #D5C4A8",
"W+	c #EACCAB",
"X+	c #C1A186",
"Y+	c #B59D94",
"Z+	c #C7B0A1",
"`+	c #F4D2C6",
" @	c #E8D3C9",
".@	c #DCC1BB",
"+@	c #D6ACA5",
"@@	c #CCB2AB",
"#@	c #CEC1BA",
"$@	c #D9CDC7",
"%@	c #FCF0EA",
"&@	c #FBEFE9",
"*@	c #F9E9E0",
"=@	c #F7E1D6",
"-@	c #F5D2C6",
";@	c #F4C3B4",
">@	c #CA9E91",
",@	c #D9BFA6",
"'@	c #E1D1B7",
")@	c #F6ECD1",
"!@	c #EEE0C0",
"~@	c #EFDDBD",
"{@	c #F3E2C7",
"]@	c #E6D2B4",
"^@	c #DAC9AC",
"/@	c #EBD3B2",
"(@	c #ECD6B5",
"_@	c #D1B89C",
":@	c #A7958A",
"<@	c #B5978B",
"[@	c #DCBBAF",
"}@	c #E1BDB6",
"|@	c #B28687",
"1@	c #BA9B9A",
"2@	c #E2D9D6",
"3@	c #FDF9F6",
"4@	c #FEF8F6",
"5@	c #FCF4EF",
"6@	c #FAEDE5",
"7@	c #F7DCD1",
"8@	c #F4CEC1",
"9@	c #F3C0B1",
"0@	c #AA857A",
"a@	c #DAC4AB",
"b@	c #CAB8A1",
"c@	c #F7EDD4",
"d@	c #F4E7CA",
"e@	c #F3E6C7",
"f@	c #F0DDC1",
"g@	c #DBC6A8",
"h@	c #DAC5A7",
"i@	c #F1E1C0",
"j@	c #F1E2C1",
"k@	c #AEA58F",
"l@	c #AF9E93",
"m@	c #D5B6AA",
"n@	c #C59B8F",
"o@	c #B9A59D",
"p@	c #D5C9C3",
"q@	c #E9E0DB",
"r@	c #FDF8F4",
"s@	c #FDFAF8",
"t@	c #FDF8F6",
"u@	c #FCF2ED",
"v@	c #F9E8E0",
"w@	c #F7DED4",
"x@	c #F4C8BB",
"y@	c #DAAD9F",
"z@	c #7E635B",
"A@	c #C1B19C",
"B@	c #DBCDB3",
"C@	c #F9F0DA",
"D@	c #F0E0BF",
"E@	c #F7EDD2",
"F@	c #F0E0C0",
"G@	c #DEC7A9",
"H@	c #DDC5A8",
"I@	c #F2E3C4",
"J@	c #F8EFD6",
"K@	c #CFC1A6",
"L@	c #948D81",
"M@	c #A19F9F",
"N@	c #C4BEBA",
"O@	c #E9D5CB",
"P@	c #FAEBE3",
"Q@	c #FDF6F2",
"R@	c #FCF5F0",
"S@	c #FBF1EB",
"T@	c #F9EBE3",
"U@	c #F5D7CC",
"V@	c #F4CCBF",
"W@	c #EABDAE",
"X@	c #A08076",
"Y@	c #B6A693",
"Z@	c #EFE5CF",
"`@	c #EFE1C5",
" #	c #F2E4C6",
".#	c #F6EBD0",
"+#	c #E5CFB0",
"@#	c #D8C5A9",
"##	c #E9D4B5",
"$#	c #F9F1DB",
"%#	c #BFAF99",
"&#	c #B4ADA7",
"*#	c #E6ECF3",
"=#	c #C1C5C9",
"-#	c #EADBD2",
";#	c #F8E8DE",
">#	c #FBEEE7",
",#	c #F9EAE1",
"'#	c #EAC0B3",
")#	c #B08E80",
"!#	c #A1816B",
"~#	c #857167",
"{#	c #D7C6AB",
"]#	c #A39484",
"^#	c #F4E9D4",
"/#	c #E8D6B7",
"(#	c #F6EBD2",
"_#	c #DAC7AA",
":#	c #E2CCAE",
"<#	c #F1E6CD",
"[#	c #EFE0C6",
"}#	c #A49E9A",
"|#	c #FFFFFF",
"1#	c #EBF4FD",
"2#	c #C7C1BE",
"3#	c #F8E7DE",
"4#	c #F7E2D7",
"5#	c #F6D8CC",
"6#	c #E6C0B4",
"7#	c #CAAFA9",
"8#	c #A39B9C",
"9#	c #A28773",
"0#	c #D0B69A",
"a#	c #C1B29C",
"b#	c #C4B19E",
"c#	c #ECE0CB",
"d#	c #ECD8B8",
"e#	c #F8EED7",
"f#	c #EFDDBC",
"g#	c #D8C7AA",
"h#	c #D2BEA2",
"i#	c #F6EFDB",
"j#	c #C2B29D",
"k#	c #E5E5E5",
"l#	c #FBFDFF",
"m#	c #BEB1AB",
"n#	c #F6DBD0",
"o#	c #DBB9AD",
"p#	c #BC9D93",
"q#	c #CFB3A9",
"r#	c #DDC8BF",
"s#	c #7F7F83",
"t#	c #CEBB9F",
"u#	c #B5A491",
"v#	c #908375",
"w#	c #D0BCA5",
"x#	c #E2D9C5",
"y#	c #E6D4B6",
"z#	c #F8EED6",
"A#	c #EDDABA",
"B#	c #DCCCAE",
"C#	c #E0CDB1",
"D#	c #EFE8D3",
"E#	c #CBC4B7",
"F#	c #FDFDFD",
"G#	c #C6B0A6",
"H#	c #E5C4B9",
"I#	c #C3A69C",
"J#	c #DCC4BA",
"K#	c #F7E1D7",
"L#	c #D2BEB8",
"M#	c #A6968F",
"N#	c #B9A794",
"O#	c #DFD7C5",
"P#	c #E1D1B5",
"Q#	c #F8EDD6",
"R#	c #ECDAB9",
"S#	c #E6D5B8",
"T#	c #DDD5C1",
"U#	c #C8C1B9",
"V#	c #E2CBC1",
"W#	c #F5D8CD",
"X#	c #CBBDC5",
"Y#	c #CADAF0",
"Z#	c #D7CFCB",
"`#	c #FAECE4",
" $	c #FBF2EC",
".$	c #FAEFE8",
"+$	c #9E9591",
"@$	c #999797",
"#$	c #AF9C8C",
"$$	c #E6DBC5",
"%$	c #F1E4CB",
"&$	c #F2E8D2",
"*$	c #DACBAE",
"=$	c #EAD7B8",
"-$	c #DED5BF",
";$	c #C2BDB4",
">$	c #DEDEDE",
",$	c #E5D4CA",
"'$	c #D6B9AF",
")$	c #C6DCF6",
"!$	c #DBEBFC",
"~$	c #F9FBFC",
"{$	c #D7D3D1",
"]$	c #F3E7E1",
"^$	c #F8E8DF",
"/$	c #F9EBE2",
"($	c #FDF7F3",
"_$	c #FCF4EE",
":$	c #D3D0CE",
"<$	c #D9D8D9",
"[$	c #D8C7AD",
"}$	c #F9F0DB",
"|$	c #F4EAD4",
"1$	c #E6DABE",
"2$	c #EADEC1",
"3$	c #BDB4A4",
"4$	c #F8F8F8",
"5$	c #DACCC3",
"6$	c #CCC7C9",
"7$	c #D3E6FB",
"8$	c #EEF5FE",
"9$	c #FAFCFF",
"0$	c #E0DCDD",
"a$	c #CFBECC",
"b$	c #F3E0DC",
"c$	c #D1BAD6",
"d$	c #F4E6E5",
"e$	c #FCF2EC",
"f$	c #CCC0CE",
"g$	c #F0F2F5",
"h$	c #B19E8B",
"i$	c #F5E9CD",
"j$	c #FAF3E0",
"k$	c #F2E6C9",
"l$	c #ECE2C7",
"m$	c #E5D4B5",
"n$	c #F1E3C2",
"o$	c #C4B59A",
"p$	c #E1E1E1",
"q$	c #DED1CA",
"r$	c #F4DCD1",
"s$	c #CBD4E0",
"t$	c #E0EDFC",
"u$	c #F8FBFE",
"v$	c #F3F2F4",
"w$	c #C7BDD1",
"x$	c #AB95BC",
"y$	c #BEA1C1",
"z$	c #EED9DA",
"A$	c #D0C7D3",
"B$	c #EDF5FE",
"C$	c #F5F9FE",
"D$	c #A5AAB0",
"E$	c #EAD8B8",
"F$	c #F4EBD3",
"G$	c #EEE4C8",
"H$	c #DCCFB2",
"I$	c #F0DFBE",
"J$	c #BCB5AB",
"K$	c #DFDBDA",
"L$	c #D0C8C9",
"M$	c #E0EEFC",
"N$	c #EBF3FD",
"O$	c #E9E8ED",
"P$	c #BFC9DE",
"Q$	c #C7DEF8",
"R$	c #CFE4FB",
"S$	c #E7F1FD",
"T$	c #9397A6",
"U$	c #D9C7AC",
"V$	c #E9D6B7",
"W$	c #E8DBBD",
"X$	c #F8F0D8",
"Y$	c #EADDBF",
"Z$	c #F0E1C0",
"`$	c #CDBB9F",
" %	c #DEDEDD",
".%	c #FAFCFE",
"+%	c #E8F2FD",
"@%	c #EAF3FD",
"#%	c #F1F7FD",
"$%	c #FEFFFF",
"%%	c #FCFEFF",
"&%	c #FCFDFF",
"*%	c #FDFEFF",
"=%	c #CAE1FB",
"-%	c #B7D6F9",
";%	c #D0E5FB",
">%	c #E2EFFC",
",%	c #A3ACB8",
"'%	c #EBD9B9",
")%	c #DFCFB1",
"!%	c #F4E9CC",
"~%	c #EFE4C9",
"{%	c #F0E2C1",
"]%	c #EEDCBB",
"^%	c #E1CFB0",
"/%	c #BBAE9B",
"(%	c #F8F7F7",
"_%	c #FEFEFF",
":%	c #F2F7FE",
"<%	c #F4F9FE",
"[%	c #F6FAFF",
"}%	c #F8FBFF",
"|%	c #F6FAFE",
"1%	c #D7E8FC",
"2%	c #B1D3F9",
"3%	c #ADD0F8",
"4%	c #C2DDFA",
"5%	c #CADAED",
"6%	c #DFC9AE",
"7%	c #E7D5B6",
"8%	c #E7D8B9",
"9%	c #F5EACD",
"0%	c #EFE1C1",
"a%	c #D8C1A5",
"b%	c #BBB1A3",
"c%	c #FFFFFE",
"d%	c #F3F9FE",
"e%	c #F5FAFE",
"f%	c #F3F8FE",
"g%	c #F1F7FE",
"h%	c #E1EEFC",
"i%	c #C8E0FB",
"j%	c #B3D4F9",
"k%	c #C2D9F3",
"l%	c #DAC8AC",
"m%	c #E5D3B4",
"n%	c #EFE0C0",
"o%	c #ECD7B6",
"p%	c #E6CFB0",
"q%	c #CEB99E",
"r%	c #C6BFB8",
"s%	c #F4F8FE",
"t%	c #E6F0FD",
"u%	c #DAEAFC",
"v%	c #CEE3FA",
"w%	c #BBD9F9",
"x%	c #BDD9FA",
"y%	c #B7D3F3",
"z%	c #AEA08D",
"A%	c #EEDDBC",
"B%	c #F0E0BE",
"C%	c #ECD5B4",
"D%	c #D9C2A5",
"E%	c #C0AD96",
"F%	c #EAE9EA",
"G%	c #DCEBFC",
"H%	c #D1E5FB",
"I%	c #C5DEFA",
"J%	c #BDDAFA",
"K%	c #C9E0FA",
"L%	c #DDECFC",
"M%	c #D8E9FC",
"                              . + @ # $                         ",
"                          % & * = - ; > , ' ) !                 ",
"                      ~ { ] ^ / ( _ : < [ } | 1 2 3 4 5         ",
"                    6 7 8 9 0 a b c d e f g h i j ] ] ] k l     ",
"                  m n o p b q r s t u v w ] x y z A B f ] f C D ",
"                  E F G H I J K L M N O P Q ] R S T U w V ] W X ",
"                  Y Z `  ...+.@.#.$.%.&.*.=.-.] ;.>.,.'.).^ !.~.",
"                {.].^./.(._.:.<.[.}.|.1.2.3.4.5.] 6.7.8.).9.0.  ",
"              a.b.c.d.e.f.g.h.i.j.k.l.m.n.o.p.q.f f r.s.t.u.v.  ",
"            w.x.y.z.A.B.C.D.E.F.G.H.I.J.K.L.M.N.9.] O.P.Q.R.    ",
"            S.T.U.V.W.X.Y.Z.`. +.+++@+#+$+%+&+*+=+5.] V -+;+    ",
"          >+,+'+)+!+~+{+]+^+/+(+_+:+<+[+}+|+1+2+3+4+] ] 5+6+    ",
"          7+8+9+0+a+b+c+d+e+f+o f g+h+i+j+k+l+m+n+o+V ] ] 4+p+  ",
"      q+r+s+t+u+v+w+x+y+z+A+B+C+).] D+E+F+G+H+I+J+Q f ] K+L+M+  ",
"    N+O+P+Q+R+S+T+U+V+W+X+Y+Z+`+w  @.@+@@@#@$@%@&@*@f =@-@;@>@  ",
"    ,@'@)@!@~@{@]@^@/@(@_@:@<@[@-.}@|@1@2@3@4@5@6@V 7@8@9@0@    ",
"  a@b@c@d@e@e@f@g@h@i@j@k@l@m@n@o@p@q@r@s@t@u@v@w@L+x@y@z@      ",
"  A@B@C@D@E@F@G@H@I@J@K@L@M@N@O@P@5@Q@R@S@T@K+U@V@W@X@          ",
"  Y@Z@`@ #.#+#@###$#%#&#*#=#-#;#P@>#6@,#] Q !.'#)#!#~#          ",
"{#]#^#/#(#I@_#:#<#[#}#|#1#2#] ] 3#3#] 4#5#6#7#8#9#0#            ",
"a#b#c#d#e#f#g#h#i#j#k#|#l#m#V ] ] 5.n#o#p#q#r#s#t#u#            ",
"v#w#x#y#z#A#B#C#D#E#|#|#F#G#K+V w H#I#J#K#V ;#L#M#              ",
"  N#O#P#Q#R#g#S#T#U#|#|#k#V#^ W#X#Y#Z#P@*@;#`# $.$+$@$          ",
"  #$$$%$&$j@*$=$-$;$|#|#>$,$4#'$)$!$~${$]$^$/$u@($_$:$<$        ",
"    [$}$|$e@1$=$2$3$|#|#4$5$^ 6$7$8$9$|#0$a$b$c$d$e$f$|#g$      ",
"    h$i$j$k$l$m$n$o$p$|#|#q$r$s$t$u$|#|#|#v$w$x$y$z$A$B$C$D$    ",
"      E$F$G$)@H$j@I$J$|#|#K$L$M$N$l#|#|#|#|#|#|#O$P$Q$R$S$T$    ",
"      U$V$W$X$Y$Z$I$`$ %|#.%+%@%#%l#$%%%&%*%*%&%8$=%-%;%>%,%    ",
"        '%)%!%~%{%]%^%/%(%_%u$:%<%&%l#[%}%|%<%S$1%2%3%4%5%      ",
"        6%7%8%9%0%f#E$a%b%c%|#.%*%_%}%d%e%f%g%h%i%j%j%k%        ",
"          l%m%n%n$D@o%p%q%r%|#|#|#|#&%s%8$t%u%v%w%j%x%y%        ",
"          z%A%m%n$B%o%C%D%E%F%|#|#|#|#&%f%G%H%I%J%K%L%M%        "};
